<?xml version="1.0" encoding="utf-8"?>
<!-- Generator: Adobe Illustrator 21.1.0, SVG Export Plug-In . SVG Version: 6.00 Build 0)  -->
<svg version="1.1" id="Layer_1" xmlns="http://www.w3.org/2000/svg" xmlns:xlink="http://www.w3.org/1999/xlink" x="0px" y="0px"
	 viewBox="0 0 337 459" style="enable-background:new 0 0 337 459;" xml:space="preserve">
<g transform="translate(0.000000,496.000000) scale(0.100000,-0.100000)">
	<path d="M90,2670V450h1600h1600v2220v2220H1690H90V2670z M374,4818c3-18,10-107,17-198c6-91,13-167,15-169c14-15,16,29,5,176
		c-17,245-21,223,42,223h53l24-275c16-180,28-274,34-272c12,4,12,5-14,302c-11,121-20,226-20,233c0,9,23,12,83,12h83l34-270
		c22-171,38-269,44-267c13,4,14-10-24,290c-16,131-30,241-30,243c0,3,28,4,63,2l62-3l36-245c21-135,37-247,38-249c1-3,5-1,11,5
		s-4,93-25,239c-19,127-35,236-35,243c0,9,26,12,95,12c52,0,95-3,95-6c0-21,124-531,131-538c22-24,16,15-31,215
		c-28,118-57,240-65,272l-13,57h61h62l74-253c41-138,76-259,78-267c2-9-9-23-27-34c-18-10-47-31-65-48l-34-29l-150,45
		c-90,26-153,40-157,34c-3-5-4-11-3-12c2-2,63-20,134-41c72-20,134-40,138-44s-7-26-25-48l-33-39l-140,87c-83,51-144,83-149,78
		c-12-11-23-3,136-101l136-84l-20-32c-11-18-23-32-26-32c-4,0-74,50-157,110c-137,101-175,123-175,103c0-6,260-200,312-234
		c9-6-26-89-38-89c-3,0-85,67-182,150c-156,132-212,171-200,141c2-5,82-75,178-156s181-152,187-159c12-11,2-66-26-138
		c-4-12-48,38-166,188c-88,112-163,204-167,204c-23,0,7-44,157-234l165-209v-108c0-60-1-109-3-109s-93,146-203,325
		c-176,288-214,342-216,311c0-4,88-152,197-328l197-321l-261-261c-232-233-280-286-254-286c5,0,130,122,279,271l272,272l7-34
		c13-58,42-104,100-157c36-33,73-57,103-66c26-8,112-53,192-101s138-85,130-82c-8,2-154,50-323,107c-278,92-340,108-311,81
		c5-5,148-55,318-110c311-102,336-107,336-66c0,7-57,46-126,87c-96,55-120,74-102,76c12,1,39,10,59,18l36,15l100-60
		c55-34,103-61,107-61c3,0,6,6,6,13c0,6-39,35-86,62c-47,28-91,53-97,57c-8,5-2,17,17,37l29,30l76-60c42-32,80-59,84-59
		c22,0-1,31-54,70c-33,25-67,50-75,57c-16,12-15,22,15,106c5,14,21,4,96-62c50-44,94-81,98-81c23-1-7,36-95,113l-96,86l-4,63
		c-2,35-4,64-3,64c0,1,60-45,134-102c73-57,137-101,142-98c14,8,7,15-96,95c-52,40-95,77-95,81c0,12,400,478,410,478
		c21,0,22-92,2-355c-11-154-18-282-16-285c13-13,21,36,33,198c6,97,15,197,18,222l7,45l8-55c3-30,10-166,14-301l7-246l-84-6
		c-46-4-114-7-151-7c-41,0-68-4-68-11c0-6,49-9,148-7l149,3l-4-50c-3-27-6-56-8-62c-3-10-45-13-165-13c-100,0-160-4-160-10
		s60-10,161-10h161l-7-42c-4-24-9-46-12-50c-2-5-96-8-209-8c-129,0-204-4-204-10s75-10,204-10h205l-18-53c-11-30-26-68-36-87l-17-32
		l-34,33c-47,45-56,28-10-20l37-38l-29-29c-15-16-179-130-365-254c-293-196-364-250-329-250c5,0,27,13,48,28c92,66,594,402,594,398
		c0-3-60-56-133-119s-155-140-181-171c-35-40-76-71-149-113c-55-32-102-64-105-72c-3-9,1-11,15-7c16,5,30-6,65-47
		c46-53,46-53,39-111l-6-58l-31,43c-18,24-44,57-58,72s-26,35-26,43c0,14-12,19-22,8c-4-3,25-81,63-174c51-124,69-181,69-214
		c0-38,3-46,19-46c14,0,28-23,60-102c22-56,40-102,38-103c-1-2-38-5-83-7l-81-4l-109,373c-60,205-113,371-119,370
		c-14-5-16,4,100-392c58-196,105-359,105-363s-16-17-34-29c-19-12-49-44-67-70s-33-50-35-51c-1-2-64,14-138,36c-80,24-139,36-142,30
		c-3-5-4-11-3-12c2-2,64-21,138-42l134-39l-2-75l-2-75l-60-60c-53-55-72-85-52-85c4,0,33,25,64,56c55,54,57,56,64,33
		c4-13,16-36,26-51c11-14,19-28,19-31c0-2-63-76-140-163C984,731,955,690,978,690c4,0,70,72,147,160s142,160,145,160s15-8,28-18
		l22-17l-183-183L954,609L754,934c-176,288-217,347-215,311c0-6,89-154,197-329l196-319l-53-53c-69-70-89-71-113-2
		c-20,57-297,751-302,757c-1,1-7,0-13-3c-5-4,32-109,91-254c55-136,126-316,158-399l58-153H648H539l48,41c44,38,65,69,47,69
		c-4,0-36-25-71-55l-65-55h-77c-66,0-94,6-182,38c-95,35-104,41-107,66c-3,23,0,27,15,23c48-15,331-87,337-87c4,0,6,5,4,12
		c-2,6-83,32-179,57l-174,46l-3,43c-2,23,1,42,6,42c6,0,105-23,222-51c190-46,237-53,217-32c-4,3-105,30-224,58l-218,52l-3,57
		c-2,37,1,56,9,56c6,0,112-23,236-51c203-46,250-52,230-32c-4,3-102,28-219,54c-117,27-223,51-235,54c-21,5-23,11-23,71
		c0,58,2,65,17,60c68-21,376-87,381-81c12,12-18,21-208,65l-190,43v59c0,32,4,58,8,58c5,0,82-16,171-36c148-32,187-36,168-17
		c-4,3-83,23-175,43c-162,36-167,38-170,63c-3,21,0,26,12,21c21-8,21,12,0,24c-11,6-14,22-12,62l3,53l60-76c37-48,63-73,69-67
		c10,10,13,6-72,111l-62,76v151v151l206-209c183-186,234-230,234-202c0,4-99,106-220,227l-220,220v70v70l98-98c53-53,101-97,105-97
		c23,0-5,37-98,130l-105,105v93v94l86-81c80-76,104-93,104-73c0,5-43,50-95,101l-95,94v66l1,66l65-72c36-40,70-73,75-73
		c23,0,3,29-66,101l-75,77v88v89l88-88c48-48,91-87,95-87c23,0-4,37-88,119l-95,94v55v56l48-47c26-26,51-47,55-47c20,0,1,31-48,80
		l-55,54v69v68l81-73c86-78,99-87,99-66c0,7-41,49-90,93l-90,80v72v72l218-154c119-85,220-155,225-155c32-1-24,46-215,180
		c-121,85-222,160-225,166c-2,6-3,34-1,62l3,51l95-79c52-44,98-80,103-80c26-1-7,36-98,110l-105,85v68c0,38,3,67,8,65
		c4-2,45-23,91-46c45-24,85-41,88-38c11,11-13,29-98,71c-76,39-89,49-89,70c0,14,1,25,3,25s59-20,126-45c130-48,145-51,139-34
		c-2,6-62,32-133,58c-121,44-130,49-133,75c-3,23,0,27,15,23c48-15,331-87,337-87c4,0,6,5,4,12c-2,6-83,32-179,57l-174,46l-3,43
		c-2,23,1,42,6,42c6,0,105-23,222-51c190-46,237-53,217-32c-4,3-105,30-224,58l-218,52l-3,57c-2,37,1,56,9,56c6,0,112-23,236-51
		c203-46,250-52,230-32c-4,3-102,28-219,54c-117,27-223,51-235,54c-21,5-23,11-23,71c0,58,2,65,18,60c67-21,375-87,380-81
		c12,12-18,21-208,65l-190,43v59c0,32,4,58,8,58c5,0,82-16,171-36c148-32,187-36,168-17c-4,3-83,23-175,43c-162,36-167,38-170,63
		c-3,21,0,26,12,21c21-8,21,12,0,24c-11,6-14,22-12,62l3,53l60-76c37-48,63-73,69-67c10,10,13,6-72,111l-62,76v151v151l206-209
		c183-186,234-230,234-202c0,4-99,106-220,227l-220,220v70v70l98-98c53-53,101-97,105-97c23,0-5,37-98,130c-58,58-105,110-105,117
		c0,10,30,13,120,13h119L374,4818z M1441,4625c85-209,88-220,72-236s-123-62-129-56c-2,1-34,110-73,242s-74,248-77,258
		c-5,16,0,18,56,15l61-3L1441,4625z M1504,4710c55-76,104-136,109-133c13,8,4,24-71,125c-37,51-76,105-86,121l-18,27h55h55l73-90
		c64-77,99-107,99-84c0,3-29,41-65,84s-65,81-65,84s32,6,72,6c70,0,73-1,110-37c44-43,65-37,23,7l-29,30h36c20,0,80-4,134-9
		c163-16,524-24,524-12c0,5-26,12-57,14c-36,2-20,4,42,5l100,1l295-369c175-219,299-365,304-360c6,6,5,14-1,22c-6,7-135,168-287,358
		l-277,345l98,3l98,3l237-243l238-243v-167c0-104-4-168-10-168c-5,0-93,18-196,41c-168,36-222,42-186,20c7-4,81-22,165-40
		c83-18,169-37,190-42l37-10v-59c0-33-2-60-5-60c-2,0-83,18-180,41c-159,37-201,42-182,22c4-3,87-25,184-47l178-41l3-63
		c2-41-1-62-8-62s-80,15-163,34c-84,19-171,39-194,44c-32,7-43,7-43-2c0-8,64-27,168-50c92-21,184-42,205-47l37-10v-60
		c0-53-2-60-17-55c-41,13-356,86-369,86c-8,0-14-4-14-9s90-31,200-57l200-48v-47v-48l-47,14c-186,54-353,92-353,81c0-8,72-32,197-64
		c108-29,198-54,200-56c3-2,3-20,1-39l-3-35l-123,45c-68,25-126,43-129,39c-12-12,11-23,134-67l123-44v-37c0-32-7-42-60-88
		c-57-49-72-70-51-70c6,0,31,19,58,42l48,41l3-38c2-21-2-49-9-62c-10-19-11-26-1-32c9-5,12-36,10-107l-3-100l-223,158
		c-123,87-227,158-232,158c-29,0,12-34,225-185l235-166l-2-227c-1-125-3-196-5-159c-3,48-8,67-16,64c-13-4-13-11,9-307
		c7-107,14-307,14-445l-1-250l-554,560c-305,308-554,563-555,566c0,4,18,19,40,34l40,28l387-394c213-217,434-442,492-501
		c102-105,126-124,119-94c-2,8-223,238-492,511l-488,496l38,33l38,33l434-414c238-227,437-413,442-413c6,0,10,4,10,9
		s-195,195-434,422l-433,413l51,66c29,36,60,77,69,93l17,27h135c83,0,135,4,135,10s-50,10-130,10h-129l24,53l25,52l125,3
		c160,3,158,22-2,22h-115l6,33c4,17,10,47,13,65l6,32h79c50,0,77,4,73,10c-3,6-37,10-76,10h-69v80c0,64,3,80,15,80
		c13,0,15,62,15,500c0,327-3,500-10,500c-6,0-10-135-11-382c-1-321-12-653-17-527c-3,59-48,223-86,312l-36,83v194
		c0,215-8,330-22,330c-6,0-7-94-3-242c5-152,4-239-2-233c-5,6-27,35-48,65l-39,55v109c-1,78-5,110-13,113c-10,4-13-19-13-93v-98
		l-42,40c-24,23-55,50-71,61l-27,21l80,94c72,84,93,118,73,118c-5,0-46-45-91-99l-84-99l-49,26l-50,25l65,66c37,37,66,70,66,74
		c0,20-31,0-91-59l-67-66l-56,13c-31,7-59,15-61,19s16,26,40,50c25,24,45,48,45,52c0,20-29,4-75-42l-52-51l-71,3l-72,3l40,45
		c21,25,39,48,40,53c1,19-25,2-73-47c-49-52-55-55-109-59l-57-4l51,59c60,70,56,90-6,29c-40-40-45-42-54-25c-12,23-162,393-162,399
		c0,3,6,5,13,5C1399,4850,1450,4787,1504,4710z M3077,4720c69-71,129-130,134-130c25,0-2,35-108,142l-118,118h133h132v-220
		c0-121-1-220-3-220c-1,0-101,99-222,220l-220,220h73h74L3077,4720z M1604,4318c-9-15-436-502-472-538l-24-25l6,63
		c11,114,36,157,194,321c121,128,149,152,190,165C1585,4332,1614,4335,1604,4318z M1774,4323c4-4-107-121-246-260
		c-177-177-259-253-275-253c-12,0-34-5-49-10l-26-10l32,37c19,21,125,143,238,271l205,232h57C1741,4330,1770,4327,1774,4323z
		 M1884,4267l28-20l-248-248l-248-248l-27,20c-15,10-41,22-58,25c-31,7-29,9,226,259C1838,4330,1815,4315,1884,4267z M1966,4159
		l25-50l-202-237c-111-130-208-243-214-250c-10-11-19-9-52,15c-22,15-50,44-61,63l-21,35l242,242c132,133,244,240,249,237
		S1952,4186,1966,4159z M2684,2060l566-571v-169c0-105-4-170-10-170c-5,0-93,18-196,41c-168,36-222,42-186,20c7-4,81-22,165-40
		c83-18,169-37,190-42l37-10v-59c0-33-2-60-5-60c-2,0-83,18-180,41c-159,37-201,42-182,22c4-3,87-25,184-47l178-41l3-63
		c2-41-1-62-8-62s-80,15-163,34c-84,19-171,39-194,44c-32,7-43,7-43-2c0-8,64-27,168-50c92-21,184-42,205-47l37-10v-60
		c0-53-2-60-17-55c-41,13-356,86-369,86c-8,0-14-4-14-9s90-31,200-57l200-48v-47v-48l-47,14c-186,54-353,92-353,81c0-8,48-25,123-45
		c306-80,277-69,277-107c0-22-5-34-14-34c-7,0-62,18-121,40c-116,43-129,46-123,29c2-7,37-24,78-40l75-28h-63c-54-1-74,5-143,40
		c-45,22-83,38-86,35c-10-9,9-27,55-51l47-24h-655l-655-1l-147,131c-82,71-148,133-148,137s39,46,88,94c67,66,95,87,123,92
		c84,15,173,102,199,196c11,39,42,74,212,245c109,110,198,204,198,208c0,25-45-14-212-180c-188-187-188-188-188-152c0,20-5,51-11,69
		l-12,32l117,117c64,64,116,120,116,124c0,23-37-5-135-103l-111-111l-33,41l-32,40l60,69c34,37,61,71,61,74c0,22-32-2-84-62l-59-69
		l-36,16c-20,9-38,18-40,19c-2,2,15,26,38,54c54,63,45,77-13,20l-44-43l-14,28c-40,79-61,146-49,153c8,6,10,23,5,59c-3,29-4,52-1,52
		s29-34,58-75s56-72,61-69c14,9,6,22-67,122l-66,91l3,67l3,68l104-124c90-110,131-148,131-125c0,4-51,69-113,144l-114,137l14,47
		c7,26,17,47,21,47s69-62,144-137c76-75,141-134,145-130s-58,72-137,152l-143,144l38,50c39,51,118,119,210,182
		c70,47,319,199,326,199C2115,2630,2372,2373,2684,2060z M1429,943l53-6l-223-223l-224-224h-85h-85l235,235c190,191,239,235,255,230
		C1366,951,1399,946,1429,943z M1498,586l104-91l-82-3l-82-3l-72,56c-40,30-75,55-79,55c-22,0,1-30,50-67l57-43h-90
		c-62,1-95,5-108,15c-25,19-36,19-36,0c0-11-11-15-42-15h-43l124,124l125,125l35-31C1379,690,1442,636,1498,586z"/>
	<path d="M448,4174c-4-3,43-128,104-277c60-150,132-333,160-407s52-137,54-139c1-1,7,0,13,3c6,4,1,31-15,74c-57,153-299,752-305,752
		C456,4180,451,4177,448,4174z"/>
	<path d="M790,3112c0-14,4-15,400-102c374-82,352-78,357-65c2,8-493,124-734,173C800,3120,790,3117,790,3112z"/>
	<path d="M860,2980c0-13-4-12,350-70c167-28,306-52,308-54c1-2-99-68-223-146s-225-149-225-157c0-17-11-23,323,187
		c135,85,246,161,246,168c1,18-9,15-59-18c-29-19-47-26-51-18c-6,9-609,117-656,118C866,2990,860,2986,860,2980z"/>
	<path d="M1393,2642c-309-194-391-252-357-252c4,0,170,102,370,228c312,195,394,253,357,252C1758,2870,1592,2767,1393,2642z"/>
	<path d="M447,2673c-9-17,107-1253,118-1250c5,3,9,13,9,23c-23,301-110,1234-115,1234S449,2677,447,2673z"/>
	<path d="M617,2623c-8-17,147-1193,158-1190c5,2,9,10,8,18c-36,318-149,1179-155,1179C624,2630,619,2627,617,2623z"/>
	<path d="M910,2603c0-22,274-1169,281-1177c5-5,11-7,14-4c4,4-250,1104-271,1171C929,2610,910,2617,910,2603z"/>
	<path d="M757,2593c-7-15,158-1114,168-1113c6,1,9,13,8,28c-6,81-159,1092-165,1092C764,2600,759,2597,757,2593z"/>
	<path d="M337,2523c-5-10,63-946,69-952c2-2,7-1,11,2c8,9-59,957-68,957C345,2530,339,2527,337,2523z"/>
	<path d="M1760,4731c0-10,109-17,523-32c274-10,320-9,305,6c-4,5-680,34-790,35C1777,4740,1760,4736,1760,4731z"/>
	<path d="M1710,4621c0-5,44-12,98-15c210-13,884-37,889-32c4,3,4,8,1,11c-4,5-855,44-955,45C1725,4630,1710,4626,1710,4621z"/>
	<path d="M2700,4117c0-189-3-412-7-495c-5-137-5-152,10-152c16,0,17,41,17,495c0,323-3,495-10,495C2704,4460,2700,4339,2700,4117z"
		/>
	<path d="M2750,3083c0-9,416-386,432-392c37-13-23,51-202,213C2796,3071,2750,3107,2750,3083z"/>
	<path d="M2650,2877c0-12,532-537,544-537c25,0-29,59-263,288c-148,144-272,262-275,262S2650,2884,2650,2877z"/>
	<path d="M2482,2866c4-17,659-706,671-706c5,0,7,6,5,14c-4,17-659,706-671,706C2482,2880,2480,2874,2482,2866z"/>
	<path d="M1843,2397c-207-147-267-197-237-197c4,0,116,78,250,173c210,148,269,198,237,197C2088,2569,1976,2492,1843,2397z"/>
	<path d="M1918,2312c-204-153-261-202-231-202c3,0,113,80,244,178c207,153,263,203,232,202C2158,2490,2048,2410,1918,2312z"/>
	<path d="M2250,2348c0-15,874-1108,887-1109c4,0,9,3,10,8c3,9-874,1106-888,1111C2254,2360,2250,2356,2250,2348z"/>
	<path d="M1760,1851c0-10,109-17,523-32c274-10,320-9,305,6c-4,5-680,34-790,35C1777,1860,1760,1856,1760,1851z"/>
	<path d="M1710,1741c0-5,44-12,98-15c210-13,884-37,889-32c4,3,4,8,1,11c-4,5-855,44-955,45C1725,1750,1710,1746,1710,1741z"/>
	<path d="M1955,1189c-192-226-359-422-371-436l-21-26l-37,28c-23,17-40,25-46,19s44-51,131-119c163-126,166-128,174-116
		c3,5-40,45-95,88s-100,81-100,86c0,4,164,200,365,435s365,433,365,440c0,6-3,12-7,12C2308,1600,2148,1415,1955,1189z"/>
	<path d="M2415,1313c12-593,17-743,27-743c6,0,7,150,4,418c-7,465-13,602-27,602C2413,1590,2411,1484,2415,1313z"/>
	<path d="M2580,1238c0-189-3-414-7-500c-6-143-5-158,10-158c16,0,17,41,17,500c0,327-3,500-10,500C2584,1580,2580,1459,2580,1238z"
		/>
	<path d="M2700,1237c0-189-3-412-7-495c-5-137-5-152,10-152c16,0,17,41,17,495c0,323-3,495-10,495C2704,1580,2700,1459,2700,1237z"
		/>
	<path d="M2300,1011c0-294,3-451,10-451c6,0,11,127,12,355c4,562,4,538-9,543C2303,1461,2300,1367,2300,1011z"/>
	<path d="M2180,951c0-254,4-391,10-391s11,110,12,305c4,487,4,468-9,473C2183,1341,2180,1259,2180,951z"/>
</g>
</svg>
